inDegrees=yes
name=ik_S42_A01_T01
DataType=double
version=3
OpenSimVersion=4.3-2021-08-27-4bc7ad9
endheader
time	pelvis_tilt	pelvis_list	pelvis_rotation	pelvis_tx	pelvis_ty	pelvis_tz	hip_flexion_r	hip_adduction_r	hip_rotation_r	knee_angle_r	knee_angle_r_beta	ankle_angle_r	subtalar_angle_r	mtp_angle_r	hip_flexion_l	hip_adduction_l	hip_rotation_l	knee_angle_l	knee_angle_l_beta	ankle_angle_l	subtalar_angle_l	mtp_angle_l	lumbar_extension	lumbar_bending	lumbar_rotation	arm_flex_r	arm_add_r	arm_rot_r	elbow_flex_r	pro_sup_r	wrist_flex_r	wrist_dev_r	arm_flex_l	arm_add_l	arm_rot_l	elbow_flex_l	pro_sup_l	wrist_flex_l	wrist_dev_l
20.93999999999964	0.3971453531063611	-1.170525365211613	88.74777426770997	0	0.9399999999999999	0	-0.9263121073463889	1.9544458222532	-2.659274312220162	-6.371064248876055	-0.1111960479989866	0	0	0	15.35923112519091	-3.207461735315972	-15.21355369612326	15.7892829593865	0.2755749741703286	0	0	0	0	0	0	39.6033222432662	-39.60332224326623	4.873836154261588	83.23486949341766	85.12616411485189	0	0	39.6033222432662	-39.60332224326623	4.873836154261588	83.23486949341766	85.12616411482864	0	0
20.95999999999964	0.2544307056826143	-1.079412248037566	88.58180906331033	0	0.9399999999999999	0	-0.9420259504696549	1.759317376698781	-2.644600071220343	-6.194522579280157	-0.1081148145975702	0	0	0	14.32247009141393	-3.853518331022562	-11.13137347942498	15.8122048623865	0.2759750368485013	0	0	0	0	0	0	39.61447341404798	-39.61447341404801	4.874289192850561	83.24120904296849	85.1257110762829	0	0	39.61447341404798	-39.61447341404801	4.874289192850561	83.24120904296849	85.12571107625979	0	0
20.97999999999964	0.1088651612209872	-1.096285635894387	88.2962939296534	0	0.9399999999999999	0	-0.8823384614484089	1.612329188162299	-2.560848914554549	-6.214438956581346	-0.1084624209565454	0	0	0	13.08692666246892	-4.123108309743931	-7.925646914529581	15.17185046087837	0.2647987441625467	0	0	0	0	0	0	39.62335691877006	-39.62335691877009	4.874660064783857	83.24639895514514	85.12534020436601	0	0	39.62335691877006	-39.62335691877009	4.874660064783857	83.24639895514514	85.125340204343	0	0
20.99999999999964	-0.05301760314933016	-1.114469802682858	88.02021388880209	0	0.9399999999999999	0	-0.8536380133336562	1.424603004245071	-2.5941421461341	-6.216906088537111	-0.1085054805322547	0	0	0	12.47458328538041	-3.836005441156796	-6.218182849884299	14.39099349525339	0.2511702191252587	0	0	0	0	0	0	39.62629105704243	-39.62629105704246	4.874787019989554	83.24817560806157	85.12521324916601	0	0	39.62629105704243	-39.62629105704246	4.874787019989554	83.24817560806157	85.12521324914296	0	0
21.01999999999964	-0.1790464552062209	-1.168175686713519	87.69176123347134	0	0.9399999999999999	0	-0.7352873746122955	1.26685717655764	-2.677001237120949	-6.005328699438146	-0.1048127584697046	0	0	0	11.79348232044146	-3.514055290444128	-4.039999379643919	14.59649318452009	0.2547568653147878	0	0	0	0	0	0	39.63435407220479	-39.63435407220482	4.875113574832667	83.25274520217194	85.12488669433732	0	0	39.63435407220479	-39.63435407220482	4.875113574832667	83.25274520217194	85.1248866943143	0	0
21.03999999999964	-0.2267720010772817	-1.248031766940827	87.55937297420445	0	0.9399999999999999	0	-0.6427431982879183	1.135314613110139	-2.988283200591239	-5.989782314582463	-0.1045414228671907	0	0	0	10.92199893002808	-3.326717407542548	-4.363654410251791	13.93987236825309	0.2432966701337959	0	0	0	0	0	0	39.63537718138016	-39.63537718138019	4.8751613859743	83.25341433900803	85.1248388831979	0	0	39.63537718138016	-39.63537718138019	4.8751613859743	83.25341433900803	85.12483888317489	0	0
21.05999999999964	-0.2368979209664843	-1.559336690220718	87.32944568326339	0	0.9399999999999999	0	-0.2955393356804945	1.054004308020196	-3.054040801426564	-5.946102836358842	-0.1037790721566354	0	0	0	10.23034642032319	-3.283910770088399	-6.11902314933039	13.14649570847843	0.2294496352122532	0	0	0	0	0	0	39.63740750535167	-39.6374075053517	4.87525635866109	83.25474352179783	85.12474391051543	0	0	39.63740750535167	-39.6374075053517	4.87525635866109	83.25474352179783	85.12474391049244	0	0
21.07999999999964	-0.1553501918792286	-1.874950034930541	87.11233836753296	0	0.9399999999999999	0	0.01886303379789597	1.071680216176515	-2.826267942789466	-5.983642677541999	-0.1044342659859572	0	0	0	9.648440624007952	-3.153159439225179	-6.533187934665533	11.83372583641024	0.2065374786236785	0	0	0	0	0	0	39.63851126215517	-39.63851126215521	4.87530780104237	83.25546347706231	85.12469246813646	0	0	39.63851126215517	-39.63851126215521	4.87530780104237	83.25546347706231	85.12469246811345	0	0
21.09999999999964	0.008501333057974824	-2.181669049866288	86.92947129905984	0	0.9399999999999999	0	0.3338154003325165	1.245188362239697	-2.580052313183045	-5.970804307136734	-0.1042101941517948	0	0	0	8.950618962189456	-2.838937359959212	-5.910228642022251	9.822812621243132	0.1714404220471474	0	0	0	0	0	0	39.63956349662746	-39.6395634966275	4.875356972678167	83.25615165399897	85.12464329650287	0	0	39.63956349662746	-39.6395634966275	4.875356972678167	83.25615165399897	85.12464329647987	0	0
21.11999999999964	0.243850814440033	-2.487521890210771	86.67817801546148	0	0.9399999999999999	0	0.5468548811592444	1.301077138546012	-1.86704931857188	-6.171922811870661	-0.1077203742460896	0	0	0	8.4335559758806	-2.675170149512139	-8.081564584302926	8.742357948638801	0.1525829305916444	0	0	0	0	0	0	39.63839919594537	-39.6383991959454	4.875327239784284	83.25573585606378	85.12467302939551	0	0	39.63839919594537	-39.6383991959454	4.875327239784284	83.25573585606378	85.12467302937259	0	0
21.13999999999964	0.2749221524742191	-2.459417731928266	86.66015498729216	0	0.9399999999999999	0	0.5308524730574686	1.308424041094782	-1.829802681015021	-6.096957742868645	-0.1064119869680197	0	0	0	8.448709347604698	-2.645822414882529	-10.13598173230118	8.770898902156793	0.153081064202192	0	0	0	0	0	0	39.64497358988565	-39.64497358988569	4.875597549483097	83.25951844673706	85.12440271970866	0	0	39.64497358988565	-39.64497358988569	4.875597549483097	83.25951844673706	85.1244027196858	0	0
21.15999999999964	0.2130924246495517	-2.41466965039681	86.81481892228348	0	0.9399999999999999	0	0.2472601791384543	0.9626511912597127	-1.159545009158014	-6.981995908627703	-0.1218588169663266	0	0	0	8.306939577505865	-2.50390209448238	-6.586931092021641	7.84039788631157	0.136840757782541	0	0	0	0	0	0	39.64557766970059	-39.64557766970061	4.87564074400612	83.26012315799483	85.12435952518771	0	0	39.64557766970059	-39.64557766970061	4.87564074400612	83.26012315799483	85.12435952516482	0	0
21.17999999999964	0.1779733907883955	-2.271380298357459	87.10544100656695	0	0.9399999999999999	0	0.06911064044263719	0.7756834311184305	-1.274054554347907	-7.178492673934046	-0.1252883324904408	0	0	0	8.235935762200814	-2.314868883854999	-6.175785713451305	7.642801306195398	0.133392046868833	0	0	0	0	0	0	39.64610473469097	-39.646104734691	4.875665173718606	83.26046505857842	85.12433509547635	0	0	39.64610473469097	-39.646104734691	4.875665173718606	83.26046505857842	85.12433509545346	0	0
21.19999999999964	0.1989193866881409	-2.001973495936989	87.24762146277422	0	0.9399999999999999	0	-0.1825777714834831	0.6342940466563836	-1.379123403982384	-7.339241076712575	-0.1280939213862482	0	0	0	7.715089713801537	-2.277611440985917	-3.598429819694495	6.490846708371537	0.1132866463033195	0	0	0	0	0	0	39.64538230257083	-39.64538230257086	4.875658981782476	83.26037875860135	85.12434128741239	0	0	39.64538230257083	-39.64538230257086	4.875658981782476	83.26037875860135	85.12434128738951	0	0
21.21999999999964	0.1953469703389984	-1.70681425592399	87.17887647545795	0	0.9399999999999999	0	-0.3644867579178973	0.4760750145710703	-1.467181447675832	-7.211448267884516	-0.1258635161118269	0	0	0	6.97042758380665	-2.296328139887656	-5.216994186184805	5.95901854733629	0.1040044938384278	0	0	0	0	0	0	39.64739101186199	-39.64739101186202	4.875752734004862	83.26169085469701	85.12424753519433	0	0	39.64739101186199	-39.64739101186202	4.875752734004862	83.26169085469701	85.12424753517148	0	0
21.23999999999964	0.1817454254236082	-1.481743412189701	86.95257223224674	0	0.9399999999999999	0	-0.5352757632831336	0.3012243205175107	-1.555877337345507	-7.276606184851657	-0.1270007362966445	0	0	0	6.04987288282686	-2.233593545076802	-5.740189186379215	4.777689653286304	0.08338641508831232	0	0	0	0	0	0	39.6489960287387	-39.64899602873873	4.875827071717318	83.26273122984875	85.12417319748528	0	0	39.6489960287387	-39.64899602873873	4.875827071717318	83.26273122984875	85.12417319746245	0	0
21.25999999999964	0.1419177890552989	-1.355411440102487	86.78833710603465	0	0.9399999999999999	0	-0.6091132974708923	0.1118263172433982	-1.781996258144418	-7.318343513698398	-0.1277291901060078	0	0	0	5.253497604110593	-2.190937593794196	-5.999787206096577	3.505011462018808	0.06117399033236838	0	0	0	0	0	0	39.65002433031353	-39.65002433031357	4.875874893061874	83.26340050433964	85.12412537614293	0	0	39.65002433031353	-39.65002433031357	4.875874893061874	83.26340050433964	85.12412537612011	0	0
21.27999999999964	0.03428108914059328	-1.122046244284343	86.48746239971508	0	0.9399999999999999	0	-0.7317141761944514	-0.09112554499894539	-1.880468385155753	-7.189128674507886	-0.1254739657196983	0	0	0	4.503478045982351	-2.124703341889277	-7.121313720794398	2.725219194048519	0.04756404777469291	0	0	0	0	0	0	39.65184600580157	-39.65184600580159	4.875959472797315	83.26458422139125	85.12404079641135	0	0	39.65184600580157	-39.65184600580159	4.875959472797315	83.26458422139125	85.12404079638854	0	0
21.29999999999963	-0.2861208085148855	-0.5052501396236924	86.02790643910586	0	0.9399999999999999	0	-1.191373347701325	-0.5129195354320262	-1.701327018265263	-7.030257622378283	-0.1227011427739292	0	0	0	3.609586392132528	-1.801896994686988	-8.034788876930996	2.221946141313048	0.03878027596789588	0	0	0	0	0	0	39.65412528760898	-39.65412528760901	4.876065086838972	83.26606231605902	85.12393518237452	0	0	39.65412528760898	-39.65412528760901	4.876065086838972	83.26606231605902	85.1239351823517	0	0
21.31999999999963	-0.3665083290990918	-0.1353804929425968	85.84104314027292	0	0.9399999999999999	0	-1.580994640164483	-0.659383568987131	-1.606138028953889	-7.035318336328575	-0.1227894688948634	0	0	0	3.009527780300887	-1.684139693628001	-7.470668339106665	1.642213780493158	0.02866203749122904	0	0	0	0	0	0	39.65504769473338	-39.65504769473341	4.876108108699265	83.26666442134709	85.12389216051612	0	0	39.65504769473338	-39.65504769473341	4.876108108699265	83.26666442134709	85.12389216049333	0	0
